ffmpeg version 3.4.8-0ubuntu0.2 Copyright (c) 2000-2020 the FFmpeg developers
  built with gcc 7 (Ubuntu 7.5.0-3ubuntu1~18.04)
  configuration: --prefix=/usr --extra-version=0ubuntu0.2 --toolchain=hardened --libdir=/usr/lib/x86_64-linux-gnu --incdir=/usr/include/x86_64-linux-gnu --enable-gpl --disable-stripping --enable-avresample --enable-avisynth --enable-gnutls --enable-ladspa --enable-libass --enable-libbluray --enable-libbs2b --enable-libcaca --enable-libcdio --enable-libflite --enable-libfontconfig --enable-libfreetype --enable-libfribidi --enable-libgme --enable-libgsm --enable-libmp3lame --enable-libmysofa --enable-libopenjpeg --enable-libopenmpt --enable-libopus --enable-libpulse --enable-librubberband --enable-librsvg --enable-libshine --enable-libsnappy --enable-libsoxr --enable-libspeex --enable-libssh --enable-libtheora --enable-libtwolame --enable-libvorbis --enable-libvpx --enable-libwavpack --enable-libwebp --enable-libx265 --enable-libxml2 --enable-libxvid --enable-libzmq --enable-libzvbi --enable-omx --enable-openal --enable-opengl --enable-sdl2 --enable-libdc1394 --enable-libdrm --enable-libiec61883 --enable-chromaprint --enable-frei0r --enable-libopencv --enable-libx264 --enable-shared
  libavutil      55. 78.100 / 55. 78.100
  libavcodec     57.107.100 / 57.107.100
  libavformat    57. 83.100 / 57. 83.100
  libavdevice    57. 10.100 / 57. 10.100
  libavfilter     6.107.100 /  6.107.100
  libavresample   3.  7.  0 /  3.  7.  0
  libswscale      4.  8.100 /  4.  8.100
  libswresample   2.  9.100 /  2.  9.100
  libpostproc    54.  7.100 / 54.  7.100
[rawvideo @ 0x563f41047a20] Estimating duration from bitrate, this may be inaccurate
Input #0, rawvideo, from '../../SVC-Encoder-20220109T061506Z-001/SVC-Encoder/Dataset/RollerCoaster/ERP_8x8/tile_yuv/Tile_30_480x240.yuv':
  Duration: 00:00:10.00, start: 0.000000, bitrate: 41472 kb/s
    Stream #0:0: Video: rawvideo (I420 / 0x30323449), yuv420p, 480x240, 41472 kb/s, 30 tbr, 30 tbn, 30 tbc
Stream mapping:
  Stream #0:0 -> #0:0 (rawvideo (native) -> h264 (libx264))
Press [q] to stop, [?] for help
[libx264 @ 0x563f41054c60] using cpu capabilities: MMX2 SSE2Fast LZCNT SSSE3 SSE4.2 AVX
[libx264 @ 0x563f41054c60] profile High, level 2.1
Output #0, rawvideo, to 'RollerCoaster_Tile_30_480x240_x264_QP_20.h264':
  Metadata:
    encoder         : Lavf57.83.100
    Stream #0:0: Video: h264 (libx264), yuv420p, 480x240, q=-1--1, 30 fps, 30 tbn, 30 tbc
    Metadata:
      encoder         : Lavc57.107.100 libx264
    Side data:
      cpb: bitrate max/min/avg: 0/0/0 buffer size: 0 vbv_delay: -1
frame=  131 fps=0.0 q=26.0 PSNR=Y:nan U:nan V:nan *:nan size=     172kB time=00:00:02.93 bitrate= 480.0kbits/s speed=5.86x    frame=  247 fps=246 q=26.0 PSNR=Y:nan U:nan V:nan *:nan size=     256kB time=00:00:06.80 bitrate= 308.4kbits/s speed=6.78x    frame=  300 fps=220 q=26.0 LPSNR=Y:inf U:inf V:inf *:inf size=     533kB time=00:00:09.93 bitrate= 439.9kbits/s speed=7.27x    
video:533kB audio:0kB subtitle:0kB other streams:0kB global headers:0kB muxing overhead: 0.000000%
[libx264 @ 0x563f41054c60] frame I:2     Avg QP:18.63  size: 22218  PSNR Mean Y:46.61 U:51.17 V:54.18 Avg:47.82 Global:47.79
[libx264 @ 0x563f41054c60] frame P:80    Avg QP:19.89  size:  5073  PSNR Mean Y:44.44 U:50.67 V:52.82 Avg:45.80 Global:45.67
[libx264 @ 0x563f41054c60] frame B:218   Avg QP:25.49  size:   440  PSNR Mean Y:44.26 U:50.71 V:52.88 Avg:45.64 Global:45.52
[libx264 @ 0x563f41054c60] consecutive B-frames:  1.7%  4.0%  1.0% 93.3%
[libx264 @ 0x563f41054c60] mb I  I16..4:  9.0% 78.7% 12.3%
[libx264 @ 0x563f41054c60] mb P  I16..4:  0.9%  0.7%  0.3%  P16..4: 35.4% 27.9% 22.6%  0.0%  0.0%    skip:12.2%
[libx264 @ 0x563f41054c60] mb B  I16..4:  0.0%  0.0%  0.0%  B16..8: 50.2%  3.7%  0.5%  direct: 0.2%  skip:45.3%  L0:38.4% L1:55.9% BI: 5.8%
[libx264 @ 0x563f41054c60] 8x8 transform intra:60.8% inter:61.7%
[libx264 @ 0x563f41054c60] coded y,uvDC,uvAC intra: 72.2% 81.8% 39.6% inter: 16.7% 10.0% 0.1%
[libx264 @ 0x563f41054c60] i16 v,h,dc,p: 13% 52% 22% 13%
[libx264 @ 0x563f41054c60] i8 v,h,dc,ddl,ddr,vr,hd,vl,hu:  7% 19% 14% 10%  8%  6%  9%  8% 20%
[libx264 @ 0x563f41054c60] i4 v,h,dc,ddl,ddr,vr,hd,vl,hu: 11% 18% 16% 10%  8%  9%  8%  6% 14%
[libx264 @ 0x563f41054c60] i8c dc,h,v,p: 48% 27% 13% 12%
[libx264 @ 0x563f41054c60] Weighted P-Frames: Y:3.8% UV:0.0%
[libx264 @ 0x563f41054c60] ref P L0: 63.8% 22.2% 11.3%  2.6%  0.2%
[libx264 @ 0x563f41054c60] ref B L0: 91.3%  8.0%  0.7%
[libx264 @ 0x563f41054c60] ref B L1: 93.7%  6.3%
[libx264 @ 0x563f41054c60] PSNR Mean Y:44.326 U:50.705 V:52.873 Avg:45.697 Global:45.571 kb/s:436.95
